<svg width="24" height="24" viewBox="0 0 24 24" fill="none" xmlns="http://www.w3.org/2000/svg">
<path d="M9.66667 11.8833C10.9917 11.25 11.6833 10.2917 11.6833 8.8C11.6833 5.85833 9.49167 5.14166 6.9625 5.14166H0V19.9083H7.15833C9.84167 19.9083 12.3625 18.6208 12.3625 15.6208C12.3625 13.7667 11.4833 12.3958 9.66667 11.8833ZM3.24583 7.6625H6.29167C7.4625 7.6625 8.51667 7.99166 8.51667 9.35C8.51667 10.6042 7.69583 11.1083 6.5375 11.1083H3.24583V7.6625ZM6.71667 17.4H3.24583V13.3333H6.78333C8.2125 13.3333 9.11667 13.9292 9.11667 15.4417C9.11667 16.9333 8.0375 17.4 6.71667 17.4ZM21.6542 7.37083H15.6667V5.91666H21.6542V7.37083ZM24 14.7167C24 11.5542 22.15 8.91666 18.7958 8.91666C15.5375 8.91666 13.325 11.3667 13.325 14.575C13.325 17.9042 15.4208 20.1875 18.7958 20.1875C21.35 20.1875 23.0042 19.0375 23.8 16.5917H21.2083C20.9292 17.5042 19.7792 17.9875 18.8875 17.9875C17.1667 17.9875 16.2625 16.9792 16.2625 15.2667H23.975C23.9875 15.0917 24 14.9042 24 14.7167ZM16.2667 13.4167C16.3625 12.0125 17.2958 11.1333 18.7042 11.1333C20.1792 11.1333 20.9208 12 21.0458 13.4167H16.2667Z" fill="#8D93A8"/>
</svg>
