<svg width="18" height="18" viewBox="0 0 18 18" fill="none" xmlns="http://www.w3.org/2000/svg">
<path d="M12.5304 5.46967C12.8232 5.76256 12.8232 6.23744 12.5304 6.53033L10.0607 9.00001L11.0303 9.96967C11.3232 10.2626 11.3232 10.7374 11.0303 11.0303C10.7374 11.3232 10.2626 11.3232 9.96967 11.0303L8.46967 9.53033C8.17678 9.23744 8.17678 8.76256 8.46967 8.46967L8.47305 8.46631L11.4697 5.46967C11.7626 5.17678 12.2375 5.17678 12.5304 5.46967Z" fill="#8D93A8"/>
<path fill-rule="evenodd" clip-rule="evenodd" d="M16.5 9C16.5 13.1421 13.1421 16.5 9 16.5C4.85786 16.5 1.5 13.1421 1.5 9C1.5 4.85786 4.85786 1.5 9 1.5C13.1421 1.5 16.5 4.85786 16.5 9ZM15 9C15 12.3137 12.3137 15 9 15C5.68629 15 3 12.3137 3 9C3 5.68629 5.68629 3 9 3C12.3137 3 15 5.68629 15 9Z" fill="#8D93A8"/>
</svg>
