<svg width="24" height="24" viewBox="0 0 24 24" fill="none" xmlns="http://www.w3.org/2000/svg">
<g clip-path="url(#clip0_6_30)">
<path d="M1.39605 9.36244L12 23.1428L0.378488 14.5171C0.0571127 14.2761 -0.0767623 13.8611 0.0437533 13.4862L1.39605 9.36244ZM4.93066 1.16841C4.78338 0.753374 4.1943 0.753374 4.04702 1.16841L1.39605 9.36244H7.58172L4.93066 1.16841ZM7.58172 9.36244L12 23.1428L16.4183 9.36244H7.58172ZM23.9563 13.4862L22.604 9.36244L12 23.1428L23.6215 14.5171C23.9429 14.2761 24.0768 13.8611 23.9563 13.4862ZM19.953 1.16841C19.8057 0.753374 19.2166 0.753374 19.0693 1.16841L16.4183 9.36244H22.604L19.953 1.16841Z" fill="#8D93A8"/>
</g>
<defs>
<clipPath id="clip0_6_30">
<rect width="24" height="24" fill="white"/>
</clipPath>
</defs>
</svg>
