<svg width="24" height="24" viewBox="0 0 24 24" fill="none" xmlns="http://www.w3.org/2000/svg">
<path d="M21 13.4224C21 9.90259 19.1018 8.25726 16.5595 8.25726C14.4736 8.25726 13.5595 9.40426 13.054 10.1924H13.0785V8.52404H9.2221C9.2221 8.52404 9.26872 9.60188 9.2221 20H13.0785V13.597C13.0785 13.249 13.1129 12.9131 13.2074 12.6585C13.4883 11.9759 14.1215 11.269 15.1877 11.269C16.5816 11.269 17.1448 12.3227 17.1448 13.8626V20H21V13.4224ZM7.33619 4.97995C7.32392 3.85721 6.50429 3 5.17914 3C3.86749 3 3 3.85721 3 4.97995C3 6.08087 3.83191 6.96117 5.13252 6.96117H5.15705C6.50429 6.96117 7.34723 6.08087 7.33619 4.97995ZM7.08958 8.52404H3.22332V20H7.08958V8.52404Z" fill="#8D93A8"/>
</svg>
