<svg width="18" height="18" viewBox="0 0 18 18" fill="none" xmlns="http://www.w3.org/2000/svg">
<path d="M15.75 10.0668C15.75 7.42694 14.3264 6.19294 12.4196 6.19294C10.8552 6.19294 10.1696 7.0532 9.79048 7.64427H9.80891V6.39303H6.91657C6.91657 6.39303 6.95154 7.20141 6.91657 15H9.80891V10.1977C9.80891 9.93673 9.83466 9.68485 9.90551 9.49389C10.1163 8.98192 10.5911 8.45178 11.3908 8.45178C12.4362 8.45178 12.8586 9.24204 12.8586 10.3969V15H15.75V10.0668ZM5.50214 3.73497C5.49294 2.89291 4.87822 2.25 3.88436 2.25C2.90061 2.25 2.25 2.89291 2.25 3.73497C2.25 4.56066 2.87393 5.22087 3.84939 5.22087H3.86779C4.87821 5.22087 5.51042 4.56066 5.50214 3.73497ZM5.31718 6.39303H2.41749V15H5.31718V6.39303Z" fill="#8D93A8"/>
</svg>
