<svg width="24" height="24" viewBox="0 0 24 24" fill="none" xmlns="http://www.w3.org/2000/svg">
<path d="M7.78661 8.25001H9.5317C9.59821 6.98297 9.82366 5.84297 10.1661 4.94954C8.92902 5.57016 8.02232 6.78657 7.78661 8.25001ZM7.78661 9.75001C8.02277 11.2134 8.92902 12.4298 10.1661 13.0505C9.82321 12.157 9.59821 11.017 9.5317 9.75001H7.78661ZM12 13.4386C12.3433 13.0894 12.9272 11.8252 13.046 9.75001H10.9536C11.0728 11.8247 11.6567 13.0894 12 13.4386ZM10.954 8.25001H13.0464C12.9277 6.17532 12.3437 4.91063 12.0004 4.56141C11.6567 4.91063 11.0728 6.17532 10.954 8.25001ZM13.8339 13.0505C15.071 12.4298 15.9777 11.2134 16.2134 9.75001H14.4683C14.4018 11.017 14.1768 12.157 13.8339 13.0505ZM18.6667 0H5.33333C3.75521 0 2 1.34298 2 3.00001V21C2 22.657 3.27902 24 4.85714 24H18.6667C21.1667 24 22 23.375 22 20.75V3.25001C22 1.50001 21.1667 0 18.6667 0ZM17 19.5H7C6.60714 19.5 6.28571 19.1625 6.28571 18.75C6.28571 18.3375 6.60714 18 7 18H17C17.3929 18 17.7143 18.3375 17.7143 18.75C17.7143 19.1625 17.3929 19.5 17 19.5ZM12 15C8.8442 15 6.28571 12.3136 6.28571 9C6.28571 5.68641 8.8442 3.00001 12 3.00001C15.1558 3.00001 17.7143 5.68641 17.7143 9C17.7143 12.3136 15.1558 15 12 15ZM13.8339 4.94954C14.1768 5.84297 14.4018 6.98297 14.4683 8.25001H16.2134C15.9777 6.78657 15.071 5.57016 13.8339 4.94954Z" fill="#8D93A8"/>
</svg>
