<svg width="24" height="24" viewBox="0 0 24 24" fill="none" xmlns="http://www.w3.org/2000/svg">
<path fill-rule="evenodd" clip-rule="evenodd" d="M22 12C22 17.5228 17.5228 22 12 22C6.47715 22 2 17.5228 2 12C2 6.47715 6.47715 2 12 2C17.5228 2 22 6.47715 22 12ZM8.85901 19.3598C7.45641 17.7612 6.29643 15.5352 6.04883 13H4.06189C4.4195 15.8678 6.29498 18.2642 8.85901 19.3598ZM4.06189 11H6.02791C6.11195 9.55219 6.39323 8.22327 6.97214 7.00756C7.35073 6.21252 7.84677 5.48647 8.47097 4.81845C6.10704 5.9823 4.4012 8.27896 4.06189 11ZM19.9381 13C19.5805 15.8678 17.705 18.2642 15.141 19.3598C16.5436 17.7612 17.7036 15.5352 17.9512 13H19.9381ZM19.9381 11C19.5988 8.27896 17.893 5.9823 15.529 4.81845C16.1532 5.48647 16.6493 6.21252 17.0279 7.00756C17.6068 8.22327 17.8881 9.55219 17.9721 11H19.9381ZM8.03178 11C8.11265 9.78994 8.35062 8.76462 8.77786 7.86742C9.23712 6.90298 9.94032 6.03358 11 5.22679V11H8.03178ZM15.939 13C15.651 15.3663 14.3829 17.4184 13 18.6981V13H15.939ZM15.2221 7.86742C15.6494 8.76462 15.8874 9.78994 15.9682 11H13V5.22679C14.0597 6.03358 14.7629 6.90298 15.2221 7.86742ZM11 18.6981C9.61712 17.4184 8.34904 15.3663 8.06099 13H11V18.6981Z" fill="#8D93A8"/>
</svg>
