<svg width="18" height="18" viewBox="0 0 18 18" fill="none" xmlns="http://www.w3.org/2000/svg">
<path fill-rule="evenodd" clip-rule="evenodd" d="M16.5 9C16.5 13.1421 13.1421 16.5 9 16.5C4.85786 16.5 1.5 13.1421 1.5 9C1.5 4.85786 4.85786 1.5 9 1.5C13.1421 1.5 16.5 4.85786 16.5 9ZM6.64426 14.5199C5.59231 13.3209 4.72232 11.6514 4.53663 9.75H3.04642C3.31462 11.9008 4.72124 13.6981 6.64426 14.5199ZM3.04642 8.25H4.52093C4.58396 7.16414 4.79492 6.16745 5.2291 5.25567C5.51305 4.65939 5.88508 4.11485 6.35322 3.61384C4.58028 4.48673 3.3009 6.20922 3.04642 8.25ZM14.9536 9.75C14.6854 11.9008 13.2788 13.6981 11.3557 14.5199C12.4077 13.3209 13.2777 11.6514 13.4634 9.75H14.9536ZM14.9536 8.25C14.6991 6.20922 13.4197 4.48673 11.6468 3.61384C12.1149 4.11485 12.487 4.65939 12.7709 5.25567C13.2051 6.16745 13.416 7.16414 13.4791 8.25H14.9536ZM6.02384 8.25C6.08448 7.34245 6.26297 6.57347 6.5834 5.90057C6.92784 5.17724 7.45524 4.52519 8.25 3.92009V8.25H6.02384ZM11.9543 9.75C11.7382 11.5247 10.7872 13.0638 9.75 14.0235V9.75H11.9543ZM11.4166 5.90057C11.737 6.57347 11.9155 7.34245 11.9762 8.25H9.75V3.92009C10.5448 4.52519 11.0722 5.17724 11.4166 5.90057ZM8.25 14.0235C7.21284 13.0638 6.26178 11.5247 6.04574 9.75H8.25V14.0235Z" fill="#8D93A8"/>
</svg>
